<svg width="41" height="40" viewBox="0 0 41 40" fill="none" xmlns="http://www.w3.org/2000/svg">
<g id="ph:caret-down-bold">
<path id="Vector" d="M34.6723 16.3266L21.8598 28.8266C21.6812 29.0014 21.4691 29.1401 21.2355 29.2347C21.0019 29.3293 20.7514 29.378 20.4985 29.378C20.2455 29.378 19.995 29.3293 19.7614 29.2347C19.5278 29.1401 19.3157 29.0014 19.1371 28.8266L6.32462 16.3266C5.96358 15.9743 5.76074 15.4966 5.76074 14.9984C5.76074 14.5003 5.96358 14.0226 6.32462 13.6703C6.68567 13.3181 7.17535 13.1202 7.68595 13.1202C8.19655 13.1202 8.68623 13.3181 9.04728 13.6703L20.5001 24.8437L31.9528 13.6687C32.3139 13.3165 32.8036 13.1186 33.3142 13.1186C33.8247 13.1186 34.3144 13.3165 34.6755 13.6687C35.0365 14.021 35.2394 14.4987 35.2394 14.9969C35.2394 15.495 35.0365 15.9728 34.6755 16.325L34.6723 16.3266Z" fill="#1F1F1F"/>
</g>
</svg>
