<svg width="62" height="63" viewBox="0 0 62 63" fill="none" xmlns="http://www.w3.org/2000/svg">
<g clip-path="url(#clip0_204_23)">
<path d="M32.9734 13.5207C29.1025 17.688 24.4659 21.0303 19.3151 23.3663L18.0096 23.9616C15.715 25.0037 13.9119 26.905 12.9581 29.2882C12.0043 31.6715 11.9694 34.3626 12.8604 36.8275C13.7514 39.2924 15.5031 41.351 17.768 42.5948C20.0329 43.8387 22.6455 44.1768 25.0873 43.5423C26.7822 45.7328 28.675 47.756 30.7393 49.5835C32.376 51.0333 34.7432 50.6452 35.8911 48.9756L36.7218 47.7678C37.8342 46.1494 37.4352 43.9602 36.0278 42.6858C35.1833 41.923 34.3756 41.1181 33.6077 40.2741C37.1594 39.219 40.7721 38.648 44.3756 38.5273C43.8317 33.9059 42.564 29.3832 40.622 25.1349C38.6295 20.7653 36.0281 16.8723 32.9734 13.5207ZM34.8735 11.3288C38.3038 15.0539 41.1282 19.3164 43.233 23.9444C45.3468 28.5683 46.7126 33.4958 47.2756 38.5284C47.3128 38.8636 47.3482 39.1996 47.3776 39.5362C47.4128 39.9288 47.5982 40.2957 47.893 40.5561C48.1878 40.8166 48.5679 40.9492 48.9496 40.9248C49.3313 40.9004 49.6835 40.721 49.9285 40.4261C50.1736 40.1312 50.2915 39.7449 50.2564 39.3523C49.8668 35.0018 48.9095 30.7075 47.4102 26.5851C47.8843 25.1477 47.7909 23.5609 47.1496 22.1586C46.4841 20.699 45.3227 19.623 43.9786 19.0591C41.8477 15.2251 39.2336 11.6865 36.2062 8.5381C36.0708 8.39745 35.9106 8.28473 35.7346 8.20637C35.5586 8.12801 35.3703 8.08555 35.1805 8.0814C34.7972 8.07303 34.4308 8.22126 34.1621 8.49347C33.8933 8.76568 33.7442 9.13958 33.7475 9.53291C33.7508 9.92625 33.9062 10.3068 34.1796 10.5908C34.4144 10.8338 34.6466 11.0801 34.8743 11.3306L34.8735 11.3288Z" fill="white"/>
</g>
<defs>
<clipPath id="clip0_204_23">
<rect width="45.9149" height="47.7662" fill="white" transform="translate(0 19.0488) rotate(-24.5113)"/>
</clipPath>
</defs>
</svg>
